_______ Visit us at our Semi Public Bittorrent Community ________
  
http://p2pdl.com  _____________________________  http://p2pdl.com


No One Lives 2012 BRRip 480p x264 AAC - VYTO


Genre: Horror | Thriller
Plot: A gang of ruthless highway killers kidnap a wealthy couple traveling cross
country only to shockingly discover that things are not what they seem. .   
Director: Ryûhei Kitamura
Stars:  Luke Evans, Adelaide Clemens, Derek Magyar.
Rated: R for strong bloody violence, disturbing images, pervasive language and
some sexuality/nudity.


Info: 
http://www.imdb.com/title/tt1763264/

Trailer:


Format                         : MPEG-4
File size                      : 301 MiB
Duration                       : 1h 27mn
Overall bit rate mode          : Variable
Overall bit rate               : 481 Kbps
Source                         : 720p.BluRay.x264-DAA

Video
Format                         : AVC
Bit rate                       : 439 Kbps
Width                          : 720 pixels
Height                         : 304 pixels
Display aspect ratio           : 2.35:1
Frame rate mode                : Constant
Frame rate                     : 19.200 fps
Stream size                    : 275 MiB (91%)
Writing library                : x264 core 130 r2273

Audio
ID                             : 2
Format                         : AAC
Bit rate mode                  : Variable
Bit rate                       : 40.0 Kbps
Channel(s)                     : 2 channels
Channel positions              : Front: L R
Sampling rate                  : 48.0 KHz
Stream size                    : 25.0 MiB (8%)

Subtitle                       : Yes(English)

 
http://ultraimg.com/images/zEcX6.png 
http://ultraimg.com/images/EZp8.png 
http://ultraimg.com/images/AKMld.png 
http://ultraimg.com/images/OXIHV.png 
http://ultraimg.com/images/qJSFe.png 
http://ultraimg.com/images/tkFSh.png 
http://ultraimg.com/images/wApe.png 
http://ultraimg.com/images/EmYHC.png



----------------------------------------------------------------------------------------------------


Encoded using revolutionary 10bit encoding, which enables us to provide you more crispier 
and sharper images at small sizes, just make sure you follow our instructions without a fault.
Recommend to you to use latest version of VLC player. Install K-Lite Codec Pack or shark007 codecs
in case of any kind of problem in playback (For non-VLC Media Player users). Alternatively, install
Core AVC codecs, the fastest decoder that there is coupled with Community Center Codec Pack and play
on Windows Media Player Classic. Check sample to be sure.
Enjoy!

Encoder Notes:Looking For Early Access To Anything You Can Provide DVDScr, R5, DVDR, BluRay, Direct
Audio, Music Releases and Seedboxes. We require dedicated servers, so as to do more 
and fast releases of movies.
If You Got anything to offer please contact us at "contact@p2pdl.com".

Face book Fan Page:   
http://fbl.me/BC